<svg xmlns="http://www.w3.org/2000/svg" xmlns:xlink="http://www.w3.org/1999/xlink" contentStyleType="text/css" data-diagram-type="DESCRIPTION" height="692px" preserveAspectRatio="none" style="width:2590px;height:692px;background:#FFFFFF;" version="1.1" viewBox="0 0 2590 692" width="2590px" zoomAndPan="magnify"><defs/><g><!--cluster RBC Toronto--><g class="cluster" data-entity="RBC Toronto" data-source-line="13" data-uid="ent0002" id="cluster_RBC Toronto"><path d="M1294.5,6 L1394.0674,6 A3.75,3.75 0 0 1 1396.5674,8.5 L1403.5674,28.2969 L1403.5,28.2969 A2.5,2.5 0 0 1 1406,30.7969 L1406,90.8 A2.5,2.5 0 0 1 1403.5,93.3 L1294.5,93.3 A2.5,2.5 0 0 1 1292,90.8 L1292,8.5 A2.5,2.5 0 0 1 1294.5,6" fill="#FFFFFF" style="stroke:#999999;stroke-width:1.5;"/><line style="stroke:#999999;stroke-width:1.5;" x1="1292" x2="1403.5674" y1="28.2969" y2="28.2969"/><text fill="#000000" font-family="sans-serif" font-size="14" font-weight="bold" lengthAdjust="spacing" textLength="98.5674" x="1296" y="20.9951">RBC Toronto</text></g><!--cluster On-Prem (FIS)--><g class="cluster" data-entity="On-Prem .FIS." data-source-line="23" data-uid="ent0006" id="cluster_On-Prem .FIS."><path d="M2175.5,597.93 L2287.9531,597.93 A3.75,3.75 0 0 1 2290.4531,600.43 L2297.4531,620.2269 L2336.5,620.2269 A2.5,2.5 0 0 1 2339,622.7269 L2339,682.73 A2.5,2.5 0 0 1 2336.5,685.23 L2175.5,685.23 A2.5,2.5 0 0 1 2173,682.73 L2173,600.43 A2.5,2.5 0 0 1 2175.5,597.93" fill="#FFFFFF" style="stroke:#999999;stroke-width:1.5;"/><line style="stroke:#999999;stroke-width:1.5;" x1="2173" x2="2297.4531" y1="620.2269" y2="620.2269"/><text fill="#000000" font-family="sans-serif" font-size="14" font-weight="bold" lengthAdjust="spacing" textLength="111.4531" x="2177" y="612.9251">On-Prem (FIS)</text></g><!--cluster Azure - US WEST 2 (DC04)--><g class="cluster" data-entity="Azure - US WEST 2 .DC04." data-source-line="28" data-uid="ent0008" id="cluster_Azure - US WEST 2 .DC04."><path d="M1436.5,223.6 L1643.0361,223.6 A3.75,3.75 0 0 1 1645.5361,226.1 L1652.5361,245.8969 L2580.5,245.8969 A2.5,2.5 0 0 1 2583,248.3969 L2583,540.28 A2.5,2.5 0 0 1 2580.5,542.78 L1436.5,542.78 A2.5,2.5 0 0 1 1434,540.28 L1434,226.1 A2.5,2.5 0 0 1 1436.5,223.6" fill="#FFFFFF" style="stroke:#999999;stroke-width:1.5;"/><line style="stroke:#999999;stroke-width:1.5;" x1="1434" x2="1652.5361" y1="245.8969" y2="245.8969"/><text fill="#000000" font-family="sans-serif" font-size="14" font-weight="bold" lengthAdjust="spacing" textLength="205.5361" x="1438" y="238.5951">Azure - US WEST 2 (DC04)</text></g><!--cluster Azure - US WEST CENTRAL (DC06)--><g class="cluster" data-entity="Azure - US WEST CENTRAL .DC06." data-source-line="47" data-uid="ent0024" id="cluster_Azure - US WEST CENTRAL .DC06."><path d="M8.5,341.89 L276.9355,341.89 A3.75,3.75 0 0 1 279.4355,344.39 L286.4355,364.1869 L1407.5,364.1869 A2.5,2.5 0 0 1 1410,366.6869 L1410,682.73 A2.5,2.5 0 0 1 1407.5,685.23 L8.5,685.23 A2.5,2.5 0 0 1 6,682.73 L6,344.39 A2.5,2.5 0 0 1 8.5,341.89" fill="#FFFFFF" style="stroke:#999999;stroke-width:1.5;"/><line style="stroke:#999999;stroke-width:1.5;" x1="6" x2="286.4355" y1="364.1869" y2="364.1869"/><text fill="#000000" font-family="sans-serif" font-size="14" font-weight="bold" lengthAdjust="spacing" textLength="267.4355" x="10" y="356.8851">Azure - US WEST CENTRAL (DC06)</text></g><!--entity GPT--><g class="entity" data-entity="GPT" data-source-line="14" data-uid="ent0003" id="entity_GPT"><rect fill="#F1F1F1" height="36.2969" rx="2.5" ry="2.5" style="stroke:#181818;stroke-width:0.5;" width="47.8428" x="1325.08" y="41"/><text fill="#000000" font-family="sans-serif" font-size="14" lengthAdjust="spacing" textLength="27.8428" x="1335.08" y="63.9951">GPT</text></g><!--entity FIS--><g class="entity" data-entity="FIS" data-source-line="24" data-uid="ent0007" id="entity_FIS"><rect fill="#F1F1F1" height="36.2969" rx="2.5" ry="2.5" style="stroke:#181818;stroke-width:0.5;" width="134.8848" x="2188.56" y="632.93"/><text fill="#000000" font-family="sans-serif" font-size="14" lengthAdjust="spacing" textLength="114.8848" x="2198.56" y="655.9251">FIS Core System</text></g><!--entity Acct Validation Proxy--><g class="entity" data-entity="Acct Validation Proxy" data-source-line="29" data-uid="ent0009" id="entity_Acct Validation Proxy"><rect fill="#F1F1F1" height="36.2969" rx="2.5" ry="2.5" style="stroke:#181818;stroke-width:0.5;" width="168.9141" x="2066.54" y="258.6"/><text fill="#000000" font-family="sans-serif" font-size="14" lengthAdjust="spacing" textLength="148.9141" x="2076.54" y="281.5951">Acct Validation Proxy</text></g><!--entity Acct Post Proxy--><g class="entity" data-entity="Acct Post Proxy" data-source-line="30" data-uid="ent0010" id="entity_Acct Post Proxy"><rect fill="#F1F1F1" height="36.2969" rx="2.5" ry="2.5" style="stroke:#181818;stroke-width:0.5;" width="128.4863" x="2348.76" y="258.6"/><text fill="#000000" font-family="sans-serif" font-size="14" lengthAdjust="spacing" textLength="108.4863" x="2358.76" y="281.5951">Acct Post Proxy</text></g><!--entity OFAC Proxy--><g class="entity" data-entity="OFAC Proxy" data-source-line="31" data-uid="ent0011" id="entity_OFAC Proxy"><rect fill="#F1F1F1" height="36.2969" rx="2.5" ry="2.5" style="stroke:#181818;stroke-width:0.5;" width="102.209" x="1454.9" y="258.6"/><text fill="#000000" font-family="sans-serif" font-size="14" lengthAdjust="spacing" textLength="82.209" x="1464.9" y="281.5951">OFAC Proxy</text></g><!--entity Events API Proxy--><g class="entity" data-entity="Events API Proxy" data-source-line="32" data-uid="ent0012" id="entity_Events API Proxy"><rect fill="#F1F1F1" height="36.2969" rx="2.5" ry="2.5" style="stroke:#181818;stroke-width:0.5;" width="137.7832" x="1596.11" y="258.6"/><text fill="#000000" font-family="sans-serif" font-size="14" lengthAdjust="spacing" textLength="117.7832" x="1606.11" y="281.5951">Events API Proxy</text></g><!--entity RFRF API Proxy--><g class="entity" data-entity="RFRF API Proxy" data-source-line="33" data-uid="ent0013" id="entity_RFRF API Proxy"><rect fill="#F1F1F1" height="36.2969" rx="2.5" ry="2.5" style="stroke:#181818;stroke-width:0.5;" width="125.9434" x="1771.03" y="258.6"/><text fill="#000000" font-family="sans-serif" font-size="14" lengthAdjust="spacing" textLength="105.9434" x="1781.03" y="281.5951">RFRF API Proxy</text></g><!--entity Acct Validation Function--><g class="entity" data-entity="Acct Validation Function" data-source-line="34" data-uid="ent0014" id="entity_Acct Validation Function"><rect fill="#F1F1F1" height="52.5938" rx="2.5" ry="2.5" style="stroke:#181818;stroke-width:0.5;" width="189.8936" x="2192.05" y="368.75"/><text fill="#000000" font-family="sans-serif" font-size="14" font-style="italic" lengthAdjust="spacing" textLength="74.3203" x="2249.8366" y="391.7451">&#171;function&#187;</text><text fill="#000000" font-family="sans-serif" font-size="14" lengthAdjust="spacing" textLength="169.8936" x="2202.05" y="408.042">Acct Validation Function</text></g><!--entity Acct Post Function--><g class="entity" data-entity="Acct Post Function" data-source-line="35" data-uid="ent0015" id="entity_Acct Post Function"><rect fill="#F1F1F1" height="52.5938" rx="2.5" ry="2.5" style="stroke:#181818;stroke-width:0.5;" width="149.4658" x="2417.27" y="368.75"/><text fill="#000000" font-family="sans-serif" font-size="14" font-style="italic" lengthAdjust="spacing" textLength="74.3203" x="2454.8428" y="391.7451">&#171;function&#187;</text><text fill="#000000" font-family="sans-serif" font-size="14" lengthAdjust="spacing" textLength="129.4658" x="2427.27" y="408.042">Acct Post Function</text></g><!--entity OFAC Function--><g class="entity" data-entity="OFAC Function" data-source-line="36" data-uid="ent0016" id="entity_OFAC Function"><rect fill="#F1F1F1" height="52.5938" rx="2.5" ry="2.5" style="stroke:#181818;stroke-width:0.5;" width="123.1885" x="1450.41" y="368.75"/><text fill="#000000" font-family="sans-serif" font-size="14" font-style="italic" lengthAdjust="spacing" textLength="74.3203" x="1474.8441" y="391.7451">&#171;function&#187;</text><text fill="#000000" font-family="sans-serif" font-size="14" lengthAdjust="spacing" textLength="103.1885" x="1460.41" y="408.042">OFAC Function</text></g><!--entity Events Function--><g class="entity" data-entity="Events Function" data-source-line="37" data-uid="ent0017" id="entity_Events Function"><rect fill="#F1F1F1" height="52.5938" rx="2.5" ry="2.5" style="stroke:#181818;stroke-width:0.5;" width="132.1641" x="1608.92" y="368.75"/><text fill="#000000" font-family="sans-serif" font-size="14" font-style="italic" lengthAdjust="spacing" textLength="74.3203" x="1637.8419" y="391.7451">&#171;function&#187;</text><text fill="#000000" font-family="sans-serif" font-size="14" lengthAdjust="spacing" textLength="112.1641" x="1618.92" y="408.042">Events Function</text></g><!--entity RFRF Function--><g class="entity" data-entity="RFRF Function" data-source-line="38" data-uid="ent0018" id="entity_RFRF Function"><rect fill="#F1F1F1" height="52.5938" rx="2.5" ry="2.5" style="stroke:#181818;stroke-width:0.5;" width="120.3242" x="1775.84" y="368.75"/><text fill="#000000" font-family="sans-serif" font-size="14" font-style="italic" lengthAdjust="spacing" textLength="74.3203" x="1798.842" y="391.7451">&#171;function&#187;</text><text fill="#000000" font-family="sans-serif" font-size="14" lengthAdjust="spacing" textLength="100.3242" x="1785.84" y="408.042">RFRF Function</text></g><!--entity Watchdog/Recovery Function--><g class="entity" data-entity="Watchdog.Recovery Function" data-source-line="39" data-uid="ent0019" id="entity_Watchdog.Recovery Function"><rect fill="#F1F1F1" height="52.5938" rx="2.5" ry="2.5" style="stroke:#181818;stroke-width:0.5;" width="225.8438" x="1931.08" y="368.75"/><text fill="#000000" font-family="sans-serif" font-size="14" font-style="italic" lengthAdjust="spacing" textLength="74.3203" x="2006.8417" y="391.7451">&#171;function&#187;</text><text fill="#000000" font-family="sans-serif" font-size="14" lengthAdjust="spacing" textLength="205.8438" x="1941.08" y="408.042">Watchdog/Recovery Function</text></g><!--entity Blob Storage (WAL)--><g class="entity" data-entity="Blob Storage .WAL." data-source-line="40" data-uid="ent0020" id="entity_Blob Storage .WAL."><rect fill="#F1F1F1" height="36.2969" rx="2.5" ry="2.5" style="stroke:#181818;stroke-width:0.5;" width="156.7666" x="2077.62" y="490.49"/><text fill="#000000" font-family="sans-serif" font-size="14" lengthAdjust="spacing" textLength="136.7666" x="2087.62" y="513.4851">Blob Storage (WAL)</text></g><!--entity Event Hub--><g class="entity" data-entity="Event Hub" data-source-line="41" data-uid="ent0021" id="entity_Event Hub"><rect fill="#F1F1F1" height="36.2969" rx="2.5" ry="2.5" style="stroke:#181818;stroke-width:0.5;" width="92.8438" x="1570.58" y="490.49"/><text fill="#000000" font-family="sans-serif" font-size="14" lengthAdjust="spacing" textLength="72.8438" x="1580.58" y="513.4851">Event Hub</text></g><!--entity Redis Cache (DC04)--><g class="entity" data-entity="Redis Cache .DC04." data-source-line="42" data-uid="ent0022" id="entity_Redis Cache .DC04."><rect fill="#F1F1F1" height="36.2969" rx="2.5" ry="2.5" style="stroke:#181818;stroke-width:0.5;" width="160.1436" x="1882.93" y="490.49"/><text fill="#000000" font-family="sans-serif" font-size="14" lengthAdjust="spacing" textLength="140.1436" x="1892.93" y="513.4851">Redis Cache (DC04)</text></g><!--entity CosmosDB (DC04)--><g class="entity" data-entity="CosmosDB .DC04." data-source-line="43" data-uid="ent0023" id="entity_CosmosDB .DC04."><rect fill="#F1F1F1" height="36.2969" rx="2.5" ry="2.5" style="stroke:#181818;stroke-width:0.5;" width="149.2607" x="1698.37" y="490.49"/><text fill="#000000" font-family="sans-serif" font-size="14" lengthAdjust="spacing" textLength="129.2607" x="1708.37" y="513.4851">CosmosDB (DC04)</text></g><!--entity Acct Validation Proxy DC06--><g class="entity" data-entity="Acct Validation Proxy DC06" data-source-line="48" data-uid="ent0025" id="entity_Acct Validation Proxy DC06"><rect fill="#F1F1F1" height="36.2969" rx="2.5" ry="2.5" style="stroke:#181818;stroke-width:0.5;" width="211.7344" x="1179.13" y="376.89"/><text fill="#000000" font-family="sans-serif" font-size="14" lengthAdjust="spacing" textLength="191.7344" x="1189.13" y="399.8851">Acct Validation Proxy DC06</text></g><!--entity Acct Post Proxy DC06--><g class="entity" data-entity="Acct Post Proxy DC06" data-source-line="49" data-uid="ent0026" id="entity_Acct Post Proxy DC06"><rect fill="#F1F1F1" height="36.2969" rx="2.5" ry="2.5" style="stroke:#181818;stroke-width:0.5;" width="171.3066" x="962.35" y="376.89"/><text fill="#000000" font-family="sans-serif" font-size="14" lengthAdjust="spacing" textLength="151.3066" x="972.35" y="399.8851">Acct Post Proxy DC06</text></g><!--entity OFAC Proxy DC06--><g class="entity" data-entity="OFAC Proxy DC06" data-source-line="50" data-uid="ent0027" id="entity_OFAC Proxy DC06"><rect fill="#F1F1F1" height="36.2969" rx="2.5" ry="2.5" style="stroke:#181818;stroke-width:0.5;" width="145.0293" x="739.49" y="376.89"/><text fill="#000000" font-family="sans-serif" font-size="14" lengthAdjust="spacing" textLength="125.0293" x="749.49" y="399.8851">OFAC Proxy DC06</text></g><!--entity Events API Proxy DC06--><g class="entity" data-entity="Events API Proxy DC06" data-source-line="51" data-uid="ent0028" id="entity_Events API Proxy DC06"><rect fill="#F1F1F1" height="36.2969" rx="2.5" ry="2.5" style="stroke:#181818;stroke-width:0.5;" width="180.6035" x="61.7" y="376.89"/><text fill="#000000" font-family="sans-serif" font-size="14" lengthAdjust="spacing" textLength="160.6035" x="71.7" y="399.8851">Events API Proxy DC06</text></g><!--entity RFRF API Proxy DC06--><g class="entity" data-entity="RFRF API Proxy DC06" data-source-line="52" data-uid="ent0029" id="entity_RFRF API Proxy DC06"><rect fill="#F1F1F1" height="36.2969" rx="2.5" ry="2.5" style="stroke:#181818;stroke-width:0.5;" width="168.7637" x="449.62" y="376.89"/><text fill="#000000" font-family="sans-serif" font-size="14" lengthAdjust="spacing" textLength="148.7637" x="459.62" y="399.8851">RFRF API Proxy DC06</text></g><!--entity Acct Validation Function DC06--><g class="entity" data-entity="Acct Validation Function DC06" data-source-line="53" data-uid="ent0030" id="entity_Acct Validation Function DC06"><rect fill="#F1F1F1" height="52.5938" rx="2.5" ry="2.5" style="stroke:#181818;stroke-width:0.5;" width="232.7139" x="1161.64" y="482.34"/><text fill="#000000" font-family="sans-serif" font-size="14" font-style="italic" lengthAdjust="spacing" textLength="74.3203" x="1240.8368" y="505.3351">&#171;function&#187;</text><text fill="#000000" font-family="sans-serif" font-size="14" lengthAdjust="spacing" textLength="212.7139" x="1171.64" y="521.632">Acct Validation Function DC06</text></g><!--entity Acct Post Function DC06--><g class="entity" data-entity="Acct Post Function DC06" data-source-line="54" data-uid="ent0031" id="entity_Acct Post Function DC06"><rect fill="#F1F1F1" height="52.5938" rx="2.5" ry="2.5" style="stroke:#181818;stroke-width:0.5;" width="192.2861" x="933.86" y="482.34"/><text fill="#000000" font-family="sans-serif" font-size="14" font-style="italic" lengthAdjust="spacing" textLength="74.3203" x="992.8429" y="505.3351">&#171;function&#187;</text><text fill="#000000" font-family="sans-serif" font-size="14" lengthAdjust="spacing" textLength="172.2861" x="943.86" y="521.632">Acct Post Function DC06</text></g><!--entity OFAC Function DC06--><g class="entity" data-entity="OFAC Function DC06" data-source-line="55" data-uid="ent0032" id="entity_OFAC Function DC06"><rect fill="#F1F1F1" height="52.5938" rx="2.5" ry="2.5" style="stroke:#181818;stroke-width:0.5;" width="166.0088" x="430" y="482.34"/><text fill="#000000" font-family="sans-serif" font-size="14" font-style="italic" lengthAdjust="spacing" textLength="74.3203" x="475.8442" y="505.3351">&#171;function&#187;</text><text fill="#000000" font-family="sans-serif" font-size="14" lengthAdjust="spacing" textLength="146.0088" x="440" y="521.632">OFAC Function DC06</text></g><!--entity Events Function DC06--><g class="entity" data-entity="Events Function DC06" data-source-line="56" data-uid="ent0033" id="entity_Events Function DC06"><rect fill="#F1F1F1" height="52.5938" rx="2.5" ry="2.5" style="stroke:#181818;stroke-width:0.5;" width="174.9844" x="21.51" y="482.34"/><text fill="#000000" font-family="sans-serif" font-size="14" font-style="italic" lengthAdjust="spacing" textLength="74.3203" x="71.842" y="505.3351">&#171;function&#187;</text><text fill="#000000" font-family="sans-serif" font-size="14" lengthAdjust="spacing" textLength="154.9844" x="31.51" y="521.632">Events Function DC06</text></g><!--entity RFRF Function DC06--><g class="entity" data-entity="RFRF Function DC06" data-source-line="57" data-uid="ent0034" id="entity_RFRF Function DC06"><rect fill="#F1F1F1" height="52.5938" rx="2.5" ry="2.5" style="stroke:#181818;stroke-width:0.5;" width="163.1445" x="231.43" y="482.34"/><text fill="#000000" font-family="sans-serif" font-size="14" font-style="italic" lengthAdjust="spacing" textLength="74.3203" x="275.8421" y="505.3351">&#171;function&#187;</text><text fill="#000000" font-family="sans-serif" font-size="14" lengthAdjust="spacing" textLength="143.1445" x="241.43" y="521.632">RFRF Function DC06</text></g><!--entity Watchdog/Recovery Function DC06--><g class="entity" data-entity="Watchdog.Recovery Function DC06" data-source-line="58" data-uid="ent0035" id="entity_Watchdog.Recovery Function DC06"><rect fill="#F1F1F1" height="52.5938" rx="2.5" ry="2.5" style="stroke:#181818;stroke-width:0.5;" width="268.6641" x="630.67" y="482.34"/><text fill="#000000" font-family="sans-serif" font-size="14" font-style="italic" lengthAdjust="spacing" textLength="74.3203" x="727.8419" y="505.3351">&#171;function&#187;</text><text fill="#000000" font-family="sans-serif" font-size="14" lengthAdjust="spacing" textLength="248.6641" x="640.67" y="521.632">Watchdog/Recovery Function DC06</text></g><!--entity Blob Storage (WAL) DC06--><g class="entity" data-entity="Blob Storage .WAL. DC06" data-source-line="59" data-uid="ent0036" id="entity_Blob Storage .WAL. DC06"><rect fill="#F1F1F1" height="36.2969" rx="2.5" ry="2.5" style="stroke:#181818;stroke-width:0.5;" width="199.5869" x="1170.21" y="632.93"/><text fill="#000000" font-family="sans-serif" font-size="14" lengthAdjust="spacing" textLength="179.5869" x="1180.21" y="655.9251">Blob Storage (WAL) DC06</text></g><!--entity Event Hub DC06--><g class="entity" data-entity="Event Hub DC06" data-source-line="60" data-uid="ent0037" id="entity_Event Hub DC06"><rect fill="#F1F1F1" height="36.2969" rx="2.5" ry="2.5" style="stroke:#181818;stroke-width:0.5;" width="135.6641" x="41.17" y="632.93"/><text fill="#000000" font-family="sans-serif" font-size="14" lengthAdjust="spacing" textLength="115.6641" x="51.17" y="655.9251">Event Hub DC06</text></g><!--entity Redis Cache (DC06)--><g class="entity" data-entity="Redis Cache .DC06." data-source-line="61" data-uid="ent0038" id="entity_Redis Cache .DC06."><rect fill="#F1F1F1" height="36.2969" rx="2.5" ry="2.5" style="stroke:#181818;stroke-width:0.5;" width="160.1436" x="949.93" y="632.93"/><text fill="#000000" font-family="sans-serif" font-size="14" lengthAdjust="spacing" textLength="140.1436" x="959.93" y="655.9251">Redis Cache (DC06)</text></g><!--entity CosmosDB (DC06)--><g class="entity" data-entity="CosmosDB .DC06." data-source-line="62" data-uid="ent0039" id="entity_CosmosDB .DC06."><rect fill="#F1F1F1" height="36.2969" rx="2.5" ry="2.5" style="stroke:#181818;stroke-width:0.5;" width="149.2607" x="690.37" y="632.93"/><text fill="#000000" font-family="sans-serif" font-size="14" lengthAdjust="spacing" textLength="129.2607" x="700.37" y="655.9251">CosmosDB (DC06)</text></g><!--entity CNB GTM--><g class="entity" data-entity="CNB GTM" data-source-line="18" data-uid="ent0004" id="entity_CNB GTM"><rect fill="#F1F1F1" height="36.2969" rx="2.5" ry="2.5" style="stroke:#181818;stroke-width:0.5;" width="85.7822" x="1306.11" y="140.3"/><text fill="#000000" font-family="sans-serif" font-size="14" lengthAdjust="spacing" textLength="65.7822" x="1316.11" y="163.2951">CNB GTM</text></g><!--link GPT to CNB GTM--><g class="link" data-entity-1="GPT" data-entity-2="CNB GTM" data-source-line="20" data-uid="lnk5" id="link_GPT_CNB GTM"><path d="M1349,77.55 C1349,95.15 1349,116.21 1349,133.88" fill="none" id="GPT-to-CNB GTM" style="stroke:#181818;stroke-width:1;"/><polygon fill="#181818" points="1349,139.88,1353,130.88,1349,134.88,1345,130.88,1349,139.88" style="stroke:#181818;stroke-width:1;"/></g><!--link CNB GTM to Acct Validation Proxy--><g class="link" data-entity-1="CNB GTM" data-entity-2="Acct Validation Proxy" data-source-line="66" data-uid="lnk40" id="link_CNB GTM_Acct Validation Proxy"><path d="M1392.18,161.53 C1487.14,166.6 1721.04,181.72 1914,215.6 C1975.46,226.39 2038.7095,242.9763 2086.3495,256.5463" fill="none" id="CNB GTM-to-Acct Validation Proxy" style="stroke:#181818;stroke-width:1;"/><polygon fill="#181818" points="2092.12,258.19,2084.5601,251.8775,2087.3113,256.8203,2082.3685,259.5714,2092.12,258.19" style="stroke:#181818;stroke-width:1;"/></g><!--link CNB GTM to Acct Post Proxy--><g class="link" data-entity-1="CNB GTM" data-entity-2="Acct Post Proxy" data-source-line="67" data-uid="lnk41" id="link_CNB GTM_Acct Post Proxy"><path d="M1392.3,160.44 C1548.93,164.27 2085.59,179.77 2253,215.6 C2296.53,224.91 2338.4993,241.5184 2370.3293,255.6984" fill="none" id="CNB GTM-to-Acct Post Proxy" style="stroke:#181818;stroke-width:1;"/><polygon fill="#181818" points="2375.81,258.14,2369.2166,250.8237,2371.2427,256.1053,2365.9611,258.1314,2375.81,258.14" style="stroke:#181818;stroke-width:1;"/></g><!--link CNB GTM to OFAC Proxy--><g class="link" data-entity-1="CNB GTM" data-entity-2="OFAC Proxy" data-source-line="68" data-uid="lnk42" id="link_CNB GTM_OFAC Proxy"><path d="M1372.5,176.86 C1402.1,198.78 1447.8388,232.6684 1477.5088,254.6484" fill="none" id="CNB GTM-to-OFAC Proxy" style="stroke:#181818;stroke-width:1;"/><polygon fill="#181818" points="1482.33,258.22,1477.4793,249.6485,1478.3124,255.2437,1472.7172,256.0767,1482.33,258.22" style="stroke:#181818;stroke-width:1;"/></g><!--link CNB GTM to Events API Proxy--><g class="link" data-entity-1="CNB GTM" data-entity-2="Events API Proxy" data-source-line="69" data-uid="lnk43" id="link_CNB GTM_Events API Proxy"><path d="M1392.09,165.6 C1438.66,173.28 1514.36,188.78 1575,215.6 C1600.09,226.69 1621.0798,241.0475 1638.5698,254.4675" fill="none" id="CNB GTM-to-Events API Proxy" style="stroke:#181818;stroke-width:1;"/><polygon fill="#181818" points="1643.33,258.12,1638.6247,249.4678,1639.3632,255.0763,1633.7547,255.8147,1643.33,258.12" style="stroke:#181818;stroke-width:1;"/></g><!--link CNB GTM to RFRF API Proxy--><g class="link" data-entity-1="CNB GTM" data-entity-2="RFRF API Proxy" data-source-line="70" data-uid="lnk44" id="link_CNB GTM_RFRF API Proxy"><path d="M1392.11,158.75 C1467.64,158.96 1627.62,165.9 1751,215.6 C1775.6,225.5 1795.1771,240.2947 1811.0071,254.2347" fill="none" id="CNB GTM-to-RFRF API Proxy" style="stroke:#181818;stroke-width:1;"/><polygon fill="#181818" points="1815.51,258.2,1811.3991,249.2501,1811.7576,254.8956,1806.1121,255.254,1815.51,258.2" style="stroke:#181818;stroke-width:1;"/></g><!--link CNB GTM to Acct Validation Proxy DC06--><g class="link" data-entity-1="CNB GTM" data-entity-2="Acct Validation Proxy DC06" data-source-line="72" data-uid="lnk45" id="link_CNB GTM_Acct Validation Proxy DC06"><path d="M1344.19,177.08 C1332.3,220.66 1303.2193,327.2716 1291.3593,370.7416" fill="none" id="CNB GTM-to-Acct Validation Proxy DC06" style="stroke:#181818;stroke-width:1;"/><polygon fill="#181818" points="1289.78,376.53,1296.0079,368.9002,1291.0961,371.7063,1288.2899,366.7945,1289.78,376.53" style="stroke:#181818;stroke-width:1;"/></g><!--link CNB GTM to Acct Post Proxy DC06--><g class="link" data-entity-1="CNB GTM" data-entity-2="Acct Post Proxy DC06" data-source-line="73" data-uid="lnk46" id="link_CNB GTM_Acct Post Proxy DC06"><path d="M1326.38,177.08 C1270.46,220.66 1130.972,329.371 1075.212,372.841" fill="none" id="CNB GTM-to-Acct Post Proxy DC06" style="stroke:#181818;stroke-width:1;"/><polygon fill="#181818" points="1070.48,376.53,1080.0373,374.1512,1074.4233,373.4558,1075.1186,367.8419,1070.48,376.53" style="stroke:#181818;stroke-width:1;"/></g><!--link CNB GTM to OFAC Proxy DC06--><g class="link" data-entity-1="CNB GTM" data-entity-2="OFAC Proxy DC06" data-source-line="74" data-uid="lnk47" id="link_CNB GTM_OFAC Proxy DC06"><path d="M1305.89,170.67 C1268.78,180.84 1214.09,197.04 1168,215.6 C1043.58,265.69 908.5167,339.3936 847.8667,373.5836" fill="none" id="CNB GTM-to-OFAC Proxy DC06" style="stroke:#181818;stroke-width:1;"/><polygon fill="#181818" points="842.64,376.53,852.4444,375.5948,846.9956,374.0746,848.5158,368.6259,842.64,376.53" style="stroke:#181818;stroke-width:1;"/></g><!--link CNB GTM to Events API Proxy DC06--><g class="link" data-entity-1="CNB GTM" data-entity-2="Events API Proxy DC06" data-source-line="75" data-uid="lnk48" id="link_CNB GTM_Events API Proxy DC06"><path d="M1305.73,160.59 C1206.57,163.85 955.58,175.69 750,215.6 C540.47,256.27 304.9376,337.9665 204.8976,374.4065" fill="none" id="CNB GTM-to-Events API Proxy DC06" style="stroke:#181818;stroke-width:1;"/><polygon fill="#181818" points="199.26,376.46,209.0855,377.1381,203.958,374.7487,206.3474,369.6213,199.26,376.46" style="stroke:#181818;stroke-width:1;"/></g><!--link CNB GTM to RFRF API Proxy DC06--><g class="link" data-entity-1="CNB GTM" data-entity-2="RFRF API Proxy DC06" data-source-line="76" data-uid="lnk49" id="link_CNB GTM_RFRF API Proxy DC06"><path d="M1305.85,163.06 C1237.49,169.48 1100.5,185.14 988,215.6 C827.57,259.03 651.7369,338.181 575.8569,373.961" fill="none" id="CNB GTM-to-RFRF API Proxy DC06" style="stroke:#181818;stroke-width:1;"/><polygon fill="#181818" points="570.43,376.52,580.2764,376.2995,574.9524,374.3875,576.8644,369.0636,570.43,376.52" style="stroke:#181818;stroke-width:1;"/></g><!--link Acct Validation Proxy to Acct Validation Function--><g class="link" data-entity-1="Acct Validation Proxy" data-entity-2="Acct Validation Function" data-source-line="79" data-uid="lnk50" id="link_Acct Validation Proxy_Acct Validation Function"><path d="M2171.36,295.16 C2194.04,314.55 2226.3498,342.1807 2252.3598,364.4207" fill="none" id="Acct Validation Proxy-to-Acct Validation Function" style="stroke:#181818;stroke-width:1;"/><polygon fill="#181818" points="2256.92,368.32,2252.6791,359.431,2253.1198,365.0706,2247.4801,365.5113,2256.92,368.32" style="stroke:#181818;stroke-width:1;"/></g><!--link Acct Validation Function to FIS--><g class="link" data-entity-1="Acct Validation Function" data-entity-2="FIS" data-source-line="80" data-uid="lnk51" id="link_Acct Validation Function_FIS"><path d="M2283.86,421.8 C2277.55,473.52 2264.2075,582.8343 2258.8475,626.7143" fill="none" id="Acct Validation Function-to-FIS" style="stroke:#181818;stroke-width:1;"/><polygon fill="#181818" points="2258.12,632.67,2263.1817,624.2214,2258.7263,627.7069,2255.2408,623.2514,2258.12,632.67" style="stroke:#181818;stroke-width:1;"/></g><!--link Acct Validation Function to CosmosDB (DC04)--><g class="link" data-entity-1="Acct Validation Function" data-entity-2="CosmosDB .DC04." data-source-line="81" data-uid="lnk52" id="link_Acct Validation Function_CosmosDB .DC04."><path d="M2191.78,417.54 C2185.77,418.84 2179.8,420.12 2174,421.34 C2037.02,450.19 2001.25,450.21 1865,482.34 C1855.17,484.66 1850.5875,485.7644 1840.4975,488.4544" fill="none" id="Acct Validation Function-to-CosmosDB (DC04)" style="stroke:#181818;stroke-width:1;"/><polygon fill="#181818" points="1834.7,490,1844.4267,491.5466,1839.5313,488.712,1842.3658,483.8166,1834.7,490" style="stroke:#181818;stroke-width:1;"/></g><!--link Acct Post Proxy to Acct Post Function--><g class="link" data-entity-1="Acct Post Proxy" data-entity-2="Acct Post Function" data-source-line="83" data-uid="lnk53" id="link_Acct Post Proxy_Acct Post Function"><path d="M2424.83,295.16 C2438,314.55 2456.0497,341.116 2471.1497,363.356" fill="none" id="Acct Post Proxy-to-Acct Post Function" style="stroke:#181818;stroke-width:1;"/><polygon fill="#181818" points="2474.52,368.32,2472.7738,358.6272,2471.7114,364.1834,2466.1552,363.1209,2474.52,368.32" style="stroke:#181818;stroke-width:1;"/></g><!--link Acct Post Function to FIS--><g class="link" data-entity-1="Acct Post Function" data-entity-2="FIS" data-source-line="84" data-uid="lnk54" id="link_Acct Post Function_FIS"><path d="M2468.07,421.8 C2420.03,473.52 2317.0235,584.394 2276.2635,628.274" fill="none" id="Acct Post Function-to-FIS" style="stroke:#181818;stroke-width:1;"/><polygon fill="#181818" points="2272.18,632.67,2281.2359,628.7982,2275.5829,629.0066,2275.3745,623.3536,2272.18,632.67" style="stroke:#181818;stroke-width:1;"/></g><!--link Acct Post Function to CosmosDB (DC04)--><g class="link" data-entity-1="Acct Post Function" data-entity-2="CosmosDB .DC04." data-source-line="85" data-uid="lnk55" id="link_Acct Post Function_CosmosDB .DC04."><path d="M2416.85,417.52 C2410.84,418.92 2404.83,420.22 2399,421.34 C2164.41,466.37 2099.53,436.98 1865,482.34 C1854.1,484.45 1848.4128,485.6543 1837.3828,488.5543" fill="none" id="Acct Post Function-to-CosmosDB (DC04)" style="stroke:#181818;stroke-width:1;"/><polygon fill="#181818" points="1831.58,490.08,1841.3013,491.66,1836.4157,488.8086,1839.2671,483.923,1831.58,490.08" style="stroke:#181818;stroke-width:1;"/></g><!--link Acct Post Function to Redis Cache (DC04)--><g class="link" data-entity-1="Acct Post Function" data-entity-2="Redis Cache .DC04." data-source-line="86" data-uid="lnk56" id="link_Acct Post Function_Redis Cache .DC04."><path d="M2417.02,417.04 C2410.94,418.56 2404.88,420.01 2399,421.34 C2249.66,455.02 2209.51,449.44 2060,482.34 C2049.55,484.64 2044.3373,485.8208 2033.6073,488.5308" fill="none" id="Acct Post Function-to-Redis Cache (DC04)" style="stroke:#181818;stroke-width:1;"/><polygon fill="#181818" points="2027.79,490,2037.4955,491.6744,2032.6378,488.7756,2035.5365,483.9179,2027.79,490" style="stroke:#181818;stroke-width:1;"/></g><!--link OFAC Proxy to OFAC Function--><g class="link" data-entity-1="OFAC Proxy" data-entity-2="OFAC Function" data-source-line="88" data-uid="lnk57" id="link_OFAC Proxy_OFAC Function"><path d="M1506.9,295.16 C1507.9,314.55 1509.2228,340.0879 1510.3628,362.3279" fill="none" id="OFAC Proxy-to-OFAC Function" style="stroke:#181818;stroke-width:1;"/><polygon fill="#181818" points="1510.67,368.32,1514.204,359.127,1510.414,363.3266,1506.2145,359.5366,1510.67,368.32" style="stroke:#181818;stroke-width:1;"/></g><!--link OFAC Function to CosmosDB (DC04)--><g class="link" data-entity-1="OFAC Function" data-entity-2="CosmosDB .DC04." data-source-line="89" data-uid="lnk58" id="link_OFAC Function_CosmosDB .DC04."><path d="M1572.21,421.78 C1621.13,442.7 1683.3331,469.3011 1726.2731,487.6611" fill="none" id="OFAC Function-to-CosmosDB (DC04)" style="stroke:#181818;stroke-width:1;"/><polygon fill="#181818" points="1731.79,490.02,1725.0873,482.8038,1727.1926,488.0543,1721.9421,490.1596,1731.79,490.02" style="stroke:#181818;stroke-width:1;"/></g><!--link Events API Proxy to Events Function--><g class="link" data-entity-1="Events API Proxy" data-entity-2="Events Function" data-source-line="91" data-uid="lnk59" id="link_Events API Proxy_Events Function"><path d="M1666.5,295.16 C1668.16,314.55 1670.3666,340.102 1672.2766,362.342" fill="none" id="Events API Proxy-to-Events Function" style="stroke:#181818;stroke-width:1;"/><polygon fill="#181818" points="1672.79,368.32,1676.0052,359.0107,1672.3622,363.3383,1668.0346,359.6953,1672.79,368.32" style="stroke:#181818;stroke-width:1;"/></g><!--link Events Function to Event Hub--><g class="link" data-entity-1="Events Function" data-entity-2="Event Hub" data-source-line="92" data-uid="lnk60" id="link_Events Function_Event Hub"><path d="M1661.69,421.64 C1650.79,442.62 1638.4175,466.4264 1628.8575,484.8164" fill="none" id="Events Function-to-Event Hub" style="stroke:#181818;stroke-width:1;"/><polygon fill="#181818" points="1626.09,490.14,1633.7903,483.9995,1628.3962,485.7036,1626.6921,480.3096,1626.09,490.14" style="stroke:#181818;stroke-width:1;"/></g><!--link Events Function to CosmosDB (DC04)--><g class="link" data-entity-1="Events Function" data-entity-2="CosmosDB .DC04." data-source-line="93" data-uid="lnk61" id="link_Events Function_CosmosDB .DC04."><path d="M1697.48,421.64 C1715.91,442.62 1737.5194,467.2429 1753.6794,485.6329" fill="none" id="Events Function-to-CosmosDB (DC04)" style="stroke:#181818;stroke-width:1;"/><polygon fill="#181818" points="1757.64,490.14,1754.7039,480.739,1754.3395,486.3841,1748.6944,486.0197,1757.64,490.14" style="stroke:#181818;stroke-width:1;"/></g><!--link RFRF API Proxy to RFRF Function--><g class="link" data-entity-1="RFRF API Proxy" data-entity-2="RFRF Function" data-source-line="95" data-uid="lnk62" id="link_RFRF API Proxy_RFRF Function"><path d="M1834.3,295.16 C1834.63,314.55 1835.0775,340.0809 1835.4575,362.3209" fill="none" id="RFRF API Proxy-to-RFRF Function" style="stroke:#181818;stroke-width:1;"/><polygon fill="#181818" points="1835.56,368.32,1839.4057,359.253,1835.4746,363.3207,1831.4068,359.3896,1835.56,368.32" style="stroke:#181818;stroke-width:1;"/></g><!--link RFRF Function to CosmosDB (DC04)--><g class="link" data-entity-1="RFRF Function" data-entity-2="CosmosDB .DC04." data-source-line="96" data-uid="lnk63" id="link_RFRF Function_CosmosDB .DC04."><path d="M1821.55,421.64 C1809.7,442.62 1796.2093,466.5249 1785.8293,484.9149" fill="none" id="RFRF Function-to-CosmosDB (DC04)" style="stroke:#181818;stroke-width:1;"/><polygon fill="#181818" points="1782.88,490.14,1790.7873,484.2685,1785.3377,485.7857,1783.8205,480.3361,1782.88,490.14" style="stroke:#181818;stroke-width:1;"/></g><!--link Watchdog/Recovery Function to Blob Storage (WAL)--><g class="link" data-entity-1="Watchdog.Recovery Function" data-entity-2="Blob Storage .WAL." data-source-line="98" data-uid="lnk64" id="link_Watchdog.Recovery Function_Blob Storage .WAL."><path d="M2069.7,421.64 C2090.75,442.62 2115.7293,467.5154 2134.1893,485.9054" fill="none" id="Watchdog/Recovery Function-to-Blob Storage (WAL)" style="stroke:#181818;stroke-width:1;"/><polygon fill="#181818" points="2138.44,490.14,2134.887,480.9543,2134.8978,486.6112,2129.2409,486.6219,2138.44,490.14" style="stroke:#181818;stroke-width:1;"/></g><!--link Watchdog/Recovery Function to CosmosDB (DC04)--><g class="link" data-entity-1="Watchdog.Recovery Function" data-entity-2="CosmosDB .DC04." data-source-line="99" data-uid="lnk65" id="link_Watchdog.Recovery Function_CosmosDB .DC04."><path d="M1981.49,421.78 C1930.68,442.7 1865.9179,469.3751 1821.3379,487.7351" fill="none" id="Watchdog/Recovery Function-to-CosmosDB (DC04)" style="stroke:#181818;stroke-width:1;"/><polygon fill="#181818" points="1815.79,490.02,1825.6351,490.2913,1820.4133,488.1159,1822.5886,482.8941,1815.79,490.02" style="stroke:#181818;stroke-width:1;"/></g><!--link Watchdog/Recovery Function to Redis Cache (DC04)--><g class="link" data-entity-1="Watchdog.Recovery Function" data-entity-2="Redis Cache .DC04." data-source-line="100" data-uid="lnk66" id="link_Watchdog.Recovery Function_Redis Cache .DC04."><path d="M2025.42,421.64 C2010.19,442.62 1992.5748,466.8945 1979.2248,485.2845" fill="none" id="Watchdog/Recovery Function-to-Redis Cache (DC04)" style="stroke:#181818;stroke-width:1;"/><polygon fill="#181818" points="1975.7,490.14,1984.2242,485.2066,1978.6373,486.0938,1977.7502,480.5069,1975.7,490.14" style="stroke:#181818;stroke-width:1;"/></g><!--link Acct Validation Proxy DC06 to Acct Validation Function DC06--><g class="link" data-entity-1="Acct Validation Proxy DC06" data-entity-2="Acct Validation Function DC06" data-source-line="103" data-uid="lnk67" id="link_Acct Validation Proxy DC06_Acct Validation Function DC06"><path d="M1283.91,413.48 C1282.75,431.87 1281.2936,455.0416 1279.9836,476.0416" fill="none" id="Acct Validation Proxy DC06-to-Acct Validation Function DC06" style="stroke:#181818;stroke-width:1;"/><polygon fill="#181818" points="1279.61,482.03,1284.1626,473.2965,1279.9213,477.0397,1276.1781,472.7984,1279.61,482.03" style="stroke:#181818;stroke-width:1;"/></g><!--link Acct Validation Function DC06 to FIS--><g class="link" data-entity-1="Acct Validation Function DC06" data-entity-2="FIS" data-source-line="104" data-uid="lnk68" id="link_Acct Validation Function DC06_FIS"><path d="M1360.64,535.36 C1384.12,541.6 1409.86,547.42 1434,550.78 C1475.44,556.55 2149.4,546.57 2187,564.93 C2216.07,579.13 2234.1735,606.7063 2244.9235,627.2063" fill="none" id="Acct Validation Function DC06-to-FIS" style="stroke:#181818;stroke-width:1;"/><polygon fill="#181818" points="2247.71,632.52,2247.0728,622.6918,2245.3879,628.0919,2239.9878,626.4071,2247.71,632.52" style="stroke:#181818;stroke-width:1;"/></g><!--link Acct Validation Function DC06 to CosmosDB (DC06)--><g class="link" data-entity-1="Acct Validation Function DC06" data-entity-2="CosmosDB .DC06." data-source-line="105" data-uid="lnk69" id="link_Acct Validation Function DC06_CosmosDB .DC06."><path d="M1199.42,535.42 C1181.32,540.9 1162.08,546.35 1144,550.78 C1050.94,573.59 1024.49,564.92 932,589.93 C888.87,601.6 846.6001,617.145 813.2201,630.335" fill="none" id="Acct Validation Function DC06-to-CosmosDB (DC06)" style="stroke:#181818;stroke-width:1;"/><polygon fill="#181818" points="807.64,632.54,817.4802,632.9526,812.2901,630.7025,814.5402,625.5124,807.64,632.54" style="stroke:#181818;stroke-width:1;"/></g><!--link Acct Post Proxy DC06 to Acct Post Function DC06--><g class="link" data-entity-1="Acct Post Proxy DC06" data-entity-2="Acct Post Function DC06" data-source-line="107" data-uid="lnk70" id="link_Acct Post Proxy DC06_Acct Post Function DC06"><path d="M1045.19,413.48 C1042.22,431.87 1038.4762,455.1067 1035.0862,476.1067" fill="none" id="Acct Post Proxy DC06-to-Acct Post Function DC06" style="stroke:#181818;stroke-width:1;"/><polygon fill="#181818" points="1034.13,482.03,1039.5132,473.7825,1034.9268,477.0939,1031.6154,472.5076,1034.13,482.03" style="stroke:#181818;stroke-width:1;"/></g><!--link Acct Post Function DC06 to FIS--><g class="link" data-entity-1="Acct Post Function DC06" data-entity-2="FIS" data-source-line="108" data-uid="lnk71" id="link_Acct Post Function DC06_FIS"><path d="M1089.61,535.35 C1106.84,541.63 1125.89,547.48 1144,550.78 C1249.71,570.08 2007.52,535.98 2111,564.93 C2159.07,578.38 2202.8657,608.1999 2229.8057,628.9399" fill="none" id="Acct Post Function DC06-to-FIS" style="stroke:#181818;stroke-width:1;"/><polygon fill="#181818" points="2234.56,632.6,2229.8686,623.9403,2230.5981,629.5499,2224.9885,630.2793,2234.56,632.6" style="stroke:#181818;stroke-width:1;"/></g><!--link Acct Post Function DC06 to CosmosDB (DC06)--><g class="link" data-entity-1="Acct Post Function DC06" data-entity-2="CosmosDB .DC06." data-source-line="109" data-uid="lnk72" id="link_Acct Post Function DC06_CosmosDB .DC06."><path d="M981.39,535.4 C928.2,563.59 849.6614,605.2102 803.5114,629.6702" fill="none" id="Acct Post Function DC06-to-CosmosDB (DC06)" style="stroke:#181818;stroke-width:1;"/><polygon fill="#181818" points="798.21,632.48,808.0353,631.7996,802.6278,630.1385,804.2889,624.731,798.21,632.48" style="stroke:#181818;stroke-width:1;"/></g><!--link Acct Post Function DC06 to Redis Cache (DC06)--><g class="link" data-entity-1="Acct Post Function DC06" data-entity-2="Redis Cache .DC06." data-source-line="110" data-uid="lnk73" id="link_Acct Post Function DC06_Redis Cache .DC06."><path d="M1030,535.4 C1030,563.59 1030,602.02 1030,626.48" fill="none" id="Acct Post Function DC06-to-Redis Cache (DC06)" style="stroke:#181818;stroke-width:1;"/><polygon fill="#181818" points="1030,632.48,1034,623.48,1030,627.48,1026,623.48,1030,632.48" style="stroke:#181818;stroke-width:1;"/></g><!--link OFAC Proxy DC06 to OFAC Function DC06--><g class="link" data-entity-1="OFAC Proxy DC06" data-entity-2="OFAC Function DC06" data-source-line="112" data-uid="lnk74" id="link_OFAC Proxy DC06_OFAC Function DC06"><path d="M764.95,413.6 C715.78,431.95 643.7313,458.8422 587.6213,479.7822" fill="none" id="OFAC Proxy DC06-to-OFAC Function DC06" style="stroke:#181818;stroke-width:1;"/><polygon fill="#181818" points="582,481.88,591.8305,482.4808,586.6844,480.1318,589.0334,474.9857,582,481.88" style="stroke:#181818;stroke-width:1;"/></g><!--link OFAC Function DC06 to CosmosDB (DC06)--><g class="link" data-entity-1="OFAC Function DC06" data-entity-2="CosmosDB .DC06." data-source-line="113" data-uid="lnk75" id="link_OFAC Function DC06_CosmosDB .DC06."><path d="M559.22,535.4 C609.8,563.59 684.2889,605.0991 728.1789,629.5591" fill="none" id="OFAC Function DC06-to-CosmosDB (DC06)" style="stroke:#181818;stroke-width:1;"/><polygon fill="#181818" points="733.42,632.48,727.5057,624.6047,729.0525,630.046,723.6112,631.5928,733.42,632.48" style="stroke:#181818;stroke-width:1;"/></g><!--link Events API Proxy DC06 to Events Function DC06--><g class="link" data-entity-1="Events API Proxy DC06" data-entity-2="Events Function DC06" data-source-line="115" data-uid="lnk76" id="link_Events API Proxy DC06_Events Function DC06"><path d="M145.28,413.48 C138.2,431.87 129.1169,455.4311 121.0269,476.4311" fill="none" id="Events API Proxy DC06-to-Events Function DC06" style="stroke:#181818;stroke-width:1;"/><polygon fill="#181818" points="118.87,482.03,125.838,475.0696,120.6674,477.3642,118.3728,472.1937,118.87,482.03" style="stroke:#181818;stroke-width:1;"/></g><!--link Events Function DC06 to Event Hub DC06--><g class="link" data-entity-1="Events Function DC06" data-entity-2="Event Hub DC06" data-source-line="116" data-uid="lnk77" id="link_Events Function DC06_Event Hub DC06"><path d="M109,535.4 C109,563.59 109,602.02 109,626.48" fill="none" id="Events Function DC06-to-Event Hub DC06" style="stroke:#181818;stroke-width:1;"/><polygon fill="#181818" points="109,632.48,113,623.48,109,627.48,105,623.48,109,632.48" style="stroke:#181818;stroke-width:1;"/></g><!--link Events Function DC06 to CosmosDB (DC06)--><g class="link" data-entity-1="Events Function DC06" data-entity-2="CosmosDB .DC06." data-source-line="117" data-uid="lnk78" id="link_Events Function DC06_CosmosDB .DC06."><path d="M168.83,535.4 C183.42,541.04 199.12,546.57 214,550.78 C380.94,598.05 577.0079,626.9231 684.0279,640.5331" fill="none" id="Events Function DC06-to-CosmosDB (DC06)" style="stroke:#181818;stroke-width:1;"/><polygon fill="#181818" points="689.98,641.29,681.5565,636.1866,685.0199,640.6592,680.5473,644.1226,689.98,641.29" style="stroke:#181818;stroke-width:1;"/></g><!--link RFRF API Proxy DC06 to RFRF Function DC06--><g class="link" data-entity-1="RFRF API Proxy DC06" data-entity-2="RFRF Function DC06" data-source-line="119" data-uid="lnk79" id="link_RFRF API Proxy DC06_RFRF Function DC06"><path d="M499.47,413.48 C463.05,431.87 410.646,458.3256 369.056,479.3256" fill="none" id="RFRF API Proxy DC06-to-RFRF Function DC06" style="stroke:#181818;stroke-width:1;"/><polygon fill="#181818" points="363.7,482.03,373.5369,481.5441,368.1633,479.7763,369.931,474.4028,363.7,482.03" style="stroke:#181818;stroke-width:1;"/></g><!--link RFRF Function DC06 to CosmosDB (DC06)--><g class="link" data-entity-1="RFRF Function DC06" data-entity-2="CosmosDB .DC06." data-source-line="120" data-uid="lnk80" id="link_RFRF Function DC06_CosmosDB .DC06."><path d="M371.71,535.39 C384.85,540.78 398.81,546.21 412,550.78 C507.78,584.03 615.1827,612.8705 687.0727,631.0305" fill="none" id="RFRF Function DC06-to-CosmosDB (DC06)" style="stroke:#181818;stroke-width:1;"/><polygon fill="#181818" points="692.89,632.5,685.1438,626.4176,688.0423,631.2754,683.1844,634.1739,692.89,632.5" style="stroke:#181818;stroke-width:1;"/></g><!--link Watchdog/Recovery Function DC06 to Blob Storage (WAL) DC06--><g class="link" data-entity-1="Watchdog.Recovery Function DC06" data-entity-2="Blob Storage .WAL. DC06" data-source-line="122" data-uid="lnk81" id="link_Watchdog.Recovery Function DC06_Blob Storage .WAL. DC06"><path d="M854.52,535.35 C874.66,540.77 896,546.22 916,550.78 C1009.41,572.1 1036.23,562.38 1128,589.93 C1165.44,601.17 1200.9367,616.5933 1229.1867,629.9633" fill="none" id="Watchdog/Recovery Function DC06-to-Blob Storage (WAL) DC06" style="stroke:#181818;stroke-width:1;"/><polygon fill="#181818" points="1234.61,632.53,1228.1862,625.0644,1230.0906,630.3911,1224.7639,632.2955,1234.61,632.53" style="stroke:#181818;stroke-width:1;"/></g><!--link Watchdog/Recovery Function DC06 to CosmosDB (DC06)--><g class="link" data-entity-1="Watchdog.Recovery Function DC06" data-entity-2="CosmosDB .DC06." data-source-line="123" data-uid="lnk82" id="link_Watchdog.Recovery Function DC06_CosmosDB .DC06."><path d="M765,535.4 C765,563.59 765,602.02 765,626.48" fill="none" id="Watchdog/Recovery Function DC06-to-CosmosDB (DC06)" style="stroke:#181818;stroke-width:1;"/><polygon fill="#181818" points="765,632.48,769,623.48,765,627.48,761,623.48,765,632.48" style="stroke:#181818;stroke-width:1;"/></g><!--link Watchdog/Recovery Function DC06 to Redis Cache (DC06)--><g class="link" data-entity-1="Watchdog.Recovery Function DC06" data-entity-2="Redis Cache .DC06." data-source-line="124" data-uid="lnk83" id="link_Watchdog.Recovery Function DC06_Redis Cache .DC06."><path d="M813.61,535.4 C866.8,563.59 945.3386,605.2102 991.4886,629.6702" fill="none" id="Watchdog/Recovery Function DC06-to-Redis Cache (DC06)" style="stroke:#181818;stroke-width:1;"/><polygon fill="#181818" points="996.79,632.48,990.7111,624.731,992.3722,630.1385,986.9647,631.7996,996.79,632.48" style="stroke:#181818;stroke-width:1;"/></g><!--link Redis Cache (DC04) to Redis Cache (DC06)--><g class="link" data-entity-1="Redis Cache .DC04." data-entity-2="Redis Cache .DC06." data-source-line="127" data-uid="lnk84" id="link_Redis Cache .DC04._Redis Cache .DC06."><path d="M1928.5,527.12 C1910.1,535.66 1886.82,545.26 1865,550.78 C1728.19,585.41 1689.88,573.58 1549,581.93 C1505.07,584.54 1195.77,579.58 1153,589.93 C1117.88,598.43 1086.2468,614.9396 1062.1568,629.4796" fill="none" id="Redis Cache (DC04)-to-Redis Cache (DC06)" style="stroke:#0000FF;stroke-width:1;stroke-dasharray:7,7;"/><polygon fill="#0000FF" points="1057.02,632.58,1066.7922,631.3539,1061.3007,629.9963,1062.6583,624.5048,1057.02,632.58" style="stroke:#0000FF;stroke-width:1;"/><text fill="#000000" font-family="sans-serif" font-size="13" lengthAdjust="spacing" textLength="107.5103" x="1800" y="577.9969">Replicated State</text></g><!--link CosmosDB (DC04) to CosmosDB (DC06)--><g class="link" data-entity-1="CosmosDB .DC04." data-entity-2="CosmosDB .DC06." data-source-line="128" data-uid="lnk85" id="link_CosmosDB .DC04._CosmosDB .DC06."><path d="M1741.67,527.12 C1724.34,535.89 1702.09,545.7 1681,550.78 C1670.87,553.22 942.21,587.87 932,589.93 C886.54,599.1 842.3251,615.9171 809.0651,630.1671" fill="none" id="CosmosDB (DC04)-to-CosmosDB (DC06)" style="stroke:#0000FF;stroke-width:1;stroke-dasharray:7,7;"/><polygon fill="#0000FF" points="803.55,632.53,813.398,632.6624,808.1459,630.5609,810.2474,625.3089,803.55,632.53" style="stroke:#0000FF;stroke-width:1;"/><text fill="#000000" font-family="sans-serif" font-size="13" lengthAdjust="spacing" textLength="121.4434" x="1416" y="577.9969">Global Distribution</text></g><!--link Blob Storage (WAL) to Blob Storage (WAL) DC06--><g class="link" data-entity-1="Blob Storage .WAL." data-entity-2="Blob Storage .WAL. DC06" data-source-line="129" data-uid="lnk86" id="link_Blob Storage .WAL._Blob Storage .WAL. DC06"><path d="M2121.13,527.2 C2103.49,535.44 2081.52,544.76 2061,550.78 C1819.64,621.66 1528.2856,641.7215 1376.1056,647.5215" fill="none" id="Blob Storage (WAL)-to-Blob Storage (WAL) DC06" style="stroke:#0000FF;stroke-width:1;stroke-dasharray:7,7;"/><polygon fill="#0000FF" points="1370.11,647.75,1379.2558,651.4043,1375.1064,647.5596,1378.9511,643.4101,1370.11,647.75" style="stroke:#0000FF;stroke-width:1;"/><text fill="#000000" font-family="sans-serif" font-size="13" lengthAdjust="spacing" textLength="103.2383" x="1999" y="577.9969">Geo-Replication</text></g><!--SRC=[ZLTDRzf04BtlhnWbXu1Kr3QfaAYYIE00ZPGc26XpY3WizWQi62_QDKberV_UzVTwFMj33fYTDn-UD_DMaQz-kAU2xi3bkpqFMHWjecF0G30tek4cO4GM4Bcb7d_tmmsyq43gbW8DVmd0YBgl6y4FeUVmW0iudmpYlzZ2XST4TdfrTKN-QK7soerkR26IZnbYC1Ye4EG2vYC7fWg_Xyxu8s8Yf46Nv07FOkkI2nv6_2m9_poTBLUff_CmWYcDs3izakVan_BdYX05W5xl1hIZ2tWCUpF1TcccCdn-t9dSBRfP0lK83XSC5aSPiTqAg0HrbkOS_ZaeovnjV1x2rp9GUjw3Nmju6Y-MS0cTM-VBjppcq7KZ-4q3twDHx3aJ_EEuAYmpBYFjx74oTBIVupV5hOJXx4uxd4_c4-F8J38vX6xyi8BhwvVi-UQccjIEIOgmcxEYx82aGBlvYKRkrkERptFcyZScZWtOKS3Ni8YuY5lTUHhUTyk-m8_3Ecq8ytm93dMtBEjzSknmkUFoTbISrMcyjDFeZ1-My-5zujnl91DY1CPeQIXfBSzCRajBbM0ZFC9oYZY1QWkmmhS5Ov1kGLMOjs3iz5iSwZDWD34U1ArxnZJqaMdeTtKXMVu4fGqHan1ne440UzLtdybIMb9LiQmoXjBNsh3hAswOwkjk0CpLFwd2h3NDPUAWsjos58oZq7bMpIzuVmdukypMb5ZQZBzWeHoaGGDZprZ6Mo1rmI0rCitUcVaDPQrcHeprd7Oe9dD47oUDCwqkGyrjRrgRlGh3MhoQ_9UuL94j22IdCSxQj6ZvZDl45glfLabyiAkatQlEJwiBoXCwxNtRj6TAs3Zo-Qwrt0gjmw_dgeaamNN2jWQLch2hfs4X6kjemMEQJshgXUn7NZ1s1TewWeiUkYvvUFpsh2xE2LYa64nRaJtAWsCNj2rqwqLjMQiyrsd-TQfFyqCfL_zJi7tWk-c43uLGcqQmXOJUy_awEB1F7fLRvgqi4U5x4P1vwYtL5wb90XRBV2iLQAeQHGEuzMKa_FKXhf1WeeI5ipKv3ijuJtlf_m00]--></g></svg>